<?xml version="1.0" standalone="no"?>
<!DOCTYPE svg PUBLIC "-//W3C//DTD SVG 20010904//EN"
 "http://www.w3.org/TR/2001/REC-SVG-20010904/DTD/svg10.dtd">
<svg version="1.0" xmlns="http://www.w3.org/2000/svg"
 width="1156.000000pt" height="1156.000000pt" viewBox="0 0 1156.000000 1156.000000"
 preserveAspectRatio="xMidYMid meet">
<metadata>
Created by potrace 1.11, written by Peter Selinger 2001-2013
</metadata>
<g transform="translate(0.000000,1156.000000) scale(0.100000,-0.100000)"
fill="#000000" stroke="none">
<path d="M4788 8874 c-2 -1 -28 -5 -58 -9 -30 -3 -81 -13 -113 -21 -32 -7 -72
-16 -89 -19 -17 -3 -70 -19 -117 -36 -47 -17 -90 -31 -96 -33 -39 -11 -226
-98 -222 -103 2 -2 28 3 58 10 140 36 260 -19 309 -142 21 -53 23 -68 23 -181
-1 -104 -16 -188 -37 -202 -6 -4 -8 -8 -4 -8 19 0 -66 -135 -106 -169 -10 -9
-26 -23 -35 -32 -21 -22 -89 -55 -126 -63 -57 -11 -103 -10 -335 10 -104 9
-380 10 -380 2 0 -5 -4 -7 -8 -4 -18 11 -207 -42 -249 -70 -13 -8 -23 -12 -23
-9 0 9 -162 -85 -180 -105 -3 -3 -25 -21 -50 -40 -91 -72 -224 -213 -319 -340
-31 -41 -58 -77 -61 -80 -3 -3 -9 -12 -15 -21 -5 -10 -25 -38 -42 -63 -18 -26
-33 -49 -33 -52 0 -3 -4 -10 -10 -17 -5 -7 -38 -50 -72 -97 -34 -47 -73 -97
-87 -111 -14 -15 -35 -37 -46 -50 -25 -29 -130 -120 -154 -133 -9 -5 -18 -12
-21 -16 -8 -12 -135 -87 -182 -109 -95 -43 -259 -101 -283 -99 -8 0 -87 -13
-120 -20 -40 -8 -367 -8 -430 0 -27 4 -67 10 -89 13 -60 9 -239 54 -295 75
l-52 19 23 -37 c12 -20 26 -41 30 -47 5 -5 27 -35 49 -65 62 -86 81 -111 119
-156 19 -23 51 -60 70 -84 19 -23 58 -66 85 -95 28 -29 64 -68 81 -86 67 -73
223 -215 349 -318 28 -22 58 -47 68 -56 9 -8 21 -15 26 -15 5 0 14 -7 21 -15
11 -13 151 -112 198 -140 165 -99 224 -131 312 -176 120 -59 363 -159 389
-159 10 0 21 -3 25 -7 4 -5 11 -8 14 -9 4 0 32 -7 62 -16 30 -10 66 -19 80
-22 14 -2 32 -7 40 -10 8 -3 30 -8 48 -11 40 -6 89 -15 122 -21 83 -14 143
-18 300 -18 96 0 195 3 220 7 125 19 158 26 232 50 26 8 49 12 52 9 4 -3 6 0
6 6 0 7 3 11 8 9 20 -6 251 109 304 152 66 53 225 188 233 197 8 9 224 188
280 232 6 4 42 32 80 62 39 30 72 58 73 62 2 5 8 8 14 8 5 0 15 6 23 13 7 6
23 20 36 29 13 9 53 38 89 65 78 57 387 263 395 263 2 0 27 16 57 35 54 36 58
37 138 19 54 -11 66 -14 90 -20 138 -33 141 -33 184 -40 22 -3 43 -7 47 -9 3
-2 21 -7 40 -10 19 -3 94 -17 167 -31 72 -14 147 -27 165 -29 17 -2 48 -6 67
-9 240 -35 443 -38 570 -10 14 3 32 7 40 9 94 20 302 121 419 204 39 28 71 48
71 44 0 -31 -320 -383 -349 -383 -5 0 -11 -4 -13 -8 -8 -20 -227 -172 -247
-172 -5 0 -11 -4 -13 -8 -5 -12 -133 -76 -219 -110 -133 -53 -410 -124 -534
-137 -16 -2 -39 -5 -50 -8 -35 -8 -186 -20 -286 -22 -98 -2 -254 12 -324 28
-86 21 -121 32 -126 40 -4 5 -11 7 -17 3 -10 -6 -9 -397 2 -451 3 -16 8 -43
11 -60 3 -16 7 -40 10 -52 3 -13 7 -33 10 -44 2 -12 14 -49 25 -83 72 -206
207 -340 400 -394 35 -10 255 -10 267 0 16 13 17 6 13 -77 -2 -33 -3 -109 -3
-170 0 -96 3 -139 18 -241 2 -12 8 -31 14 -43 7 -11 9 -21 5 -21 -3 0 1 -11
10 -25 9 -14 14 -25 11 -25 -3 0 7 -19 23 -42 69 -100 156 -109 320 -33 56 27
102 52 102 57 0 4 6 8 14 8 7 0 25 9 40 21 14 11 26 17 27 12 0 -4 2 -15 4
-23 1 -8 6 -35 10 -60 4 -25 8 -50 9 -57 1 -7 5 -16 9 -19 4 -4 7 -15 7 -23 0
-22 53 -79 85 -91 42 -16 76 -12 171 21 49 17 94 31 99 32 6 2 24 8 40 14 66
25 217 66 284 78 19 3 37 8 41 10 20 13 360 27 360 15 0 -3 10 -5 23 -6 56 -2
133 -17 202 -38 6 -2 24 -6 40 -11 40 -11 106 -39 190 -83 39 -20 80 -41 92
-47 13 -5 23 -13 23 -17 0 -5 6 -8 13 -8 14 0 36 -52 44 -103 3 -18 11 -44 19
-58 7 -15 10 -29 7 -33 -4 -3 -1 -6 6 -6 7 0 9 -4 6 -10 -3 -5 -1 -10 4 -10 6
0 11 -7 11 -15 0 -9 7 -18 15 -21 8 -4 15 -12 15 -18 0 -18 75 -57 115 -59 27
-2 35 -6 36 -22 0 -11 2 -29 5 -40 2 -11 6 -45 9 -75 8 -98 19 -126 54 -144
48 -25 165 -50 284 -60 15 -1 27 2 27 6 0 5 8 5 18 0 9 -4 26 -7 37 -6 11 2
40 5 65 7 73 8 123 19 153 34 15 7 27 11 27 8 0 -13 162 80 207 118 26 23 49
45 51 49 2 3 14 18 27 32 13 14 36 43 52 63 15 21 30 40 33 43 25 24 161 260
230 400 31 62 78 212 85 270 1 8 4 33 8 55 28 178 27 134 24 1070 -1 154 2
323 6 374 7 89 42 274 55 296 4 6 7 15 9 20 1 6 20 63 43 128 22 65 42 128 44
140 3 12 5 22 6 22 1 0 3 7 5 15 18 71 36 124 43 129 62 39 162 137 162 158 0
7 4 13 9 13 22 0 56 188 41 230 -1 3 -3 17 -5 33 -5 41 -50 127 -89 170 l-34
38 2 129 c1 72 -1 130 -4 130 -3 0 -5 28 -6 63 -1 67 -13 207 -20 241 -5 21
-6 26 -19 106 -3 24 -9 48 -11 52 -3 4 -7 17 -10 28 -10 48 -13 57 -25 100
-16 56 -14 51 -24 75 -4 11 -19 49 -32 85 -32 82 -83 184 -94 188 -5 2 -9 8
-9 14 0 10 -48 83 -84 128 -66 81 -227 219 -248 212 -5 -1 -8 2 -8 7 0 8 -105
58 -140 67 -8 2 -33 8 -55 14 -151 41 -351 40 -500 -2 -22 -6 -42 -12 -45 -13
-53 -12 -192 -73 -202 -88 -4 -7 -8 -8 -8 -4 0 4 -17 -4 -37 -18 -21 -14 -42
-25 -47 -25 -5 0 -15 -8 -22 -17 -7 -10 -16 -18 -21 -18 -15 0 -134 -98 -212
-174 -68 -67 -77 -72 -105 -66 -163 35 -432 37 -594 5 -123 -24 -193 -40 -212
-47 -36 -14 -59 -9 -130 24 -41 20 -75 34 -76 32 0 -2 -8 2 -16 9 -14 12 -40
26 -173 95 -33 17 -62 34 -65 37 -3 3 -30 17 -60 32 -74 37 -240 126 -267 144
-13 8 -23 11 -23 8 0 -4 -8 0 -17 8 -10 8 -56 35 -103 59 -47 24 -86 47 -88
52 -2 4 -12 7 -22 7 -10 0 -21 4 -25 10 -3 5 -31 22 -63 38 -31 16 -75 40 -97
52 -65 37 -316 164 -360 182 -109 45 -271 91 -365 104 -25 3 -49 9 -55 12 -9
5 -472 12 -477 6z"/>
</g>
</svg>
